<?xml version="1.0" encoding="utf-8"?>
<!-- Generator: Adobe Illustrator 19.2.1, SVG Export Plug-In . SVG Version: 6.00 Build 0)  -->
<svg version="1.1" xmlns="http://www.w3.org/2000/svg" xmlns:xlink="http://www.w3.org/1999/xlink" x="0px" y="0px"
	 viewBox="0 0 155.9 155.9" style="enable-background:new 0 0 155.9 155.9;" xml:space="preserve">
<style type="text/css">
	.st0{fill:#670000;stroke:url(#SVGID_1_);stroke-width:0.5;stroke-miterlimit:10;}
	.st1{fill:#D09B2C;}
</style>
<g id="Laag_3">
	<linearGradient id="SVGID_1_" gradientUnits="userSpaceOnUse" x1="-4.502" y1="-4.502" x2="160.4072" y2="160.4072">
		<stop  offset="0" style="stop-color:#000000"/>
		<stop  offset="1" style="stop-color:#FFFFFF"/>
	</linearGradient>
	<rect x="-4.3" y="-4.3" class="st0" width="164.4" height="164.4"/>
</g>
<g id="Laag_2">
	<g>
		<g>
			<path class="st1" d="M36.2,115c0,0.9-0.2,1.8-0.5,2.5c-0.3,0.8-0.7,1.4-1.3,1.9c-0.6,0.5-1.3,0.9-2.1,1.2c-0.8,0.3-1.8,0.4-3,0.4
				h-2.1v6.7c0,0.1,0,0.1-0.1,0.2c0,0.1-0.1,0.1-0.2,0.1c-0.1,0-0.2,0.1-0.4,0.1c-0.2,0-0.4,0-0.6,0c-0.2,0-0.4,0-0.6,0
				c-0.2,0-0.3-0.1-0.4-0.1c-0.1,0-0.2-0.1-0.2-0.1c0-0.1-0.1-0.1-0.1-0.2v-17.3c0-0.4,0.1-0.7,0.3-0.8c0.2-0.2,0.4-0.2,0.7-0.2h4
				c0.4,0,0.8,0,1.2,0.1c0.4,0,0.8,0.1,1.3,0.2c0.5,0.1,1,0.3,1.5,0.6c0.5,0.3,1,0.7,1.3,1.1c0.4,0.4,0.6,1,0.8,1.5
				C36.1,113.7,36.2,114.3,36.2,115z M33.6,115.2c0-0.8-0.1-1.4-0.4-1.9c-0.3-0.5-0.6-0.9-1.1-1.1c-0.4-0.3-0.9-0.4-1.3-0.5
				c-0.4-0.1-0.9-0.1-1.3-0.1h-2.3v7.5h2.2c0.8,0,1.4-0.1,1.9-0.3c0.5-0.2,0.9-0.5,1.2-0.8c0.3-0.3,0.6-0.8,0.8-1.2
				C33.5,116.3,33.6,115.8,33.6,115.2z"/>
			<path class="st1" d="M53.5,127.9c0,0.1,0,0.1-0.1,0.2c0,0.1-0.1,0.1-0.2,0.1c-0.1,0-0.2,0.1-0.4,0.1c-0.2,0-0.4,0-0.6,0
				c-0.3,0-0.5,0-0.6,0c-0.2,0-0.3-0.1-0.4-0.1c-0.1,0-0.2-0.1-0.2-0.1c0-0.1-0.1-0.1-0.1-0.2v-8.3h-8.5v8.3c0,0.1,0,0.1-0.1,0.2
				c0,0.1-0.1,0.1-0.2,0.1c-0.1,0-0.2,0.1-0.4,0.1c-0.2,0-0.4,0-0.6,0c-0.2,0-0.4,0-0.6,0c-0.2,0-0.3-0.1-0.4-0.1
				c-0.1,0-0.2-0.1-0.2-0.1c0-0.1-0.1-0.1-0.1-0.2v-18c0-0.1,0-0.1,0.1-0.2c0-0.1,0.1-0.1,0.2-0.1c0.1,0,0.2-0.1,0.4-0.1
				c0.2,0,0.4,0,0.6,0c0.2,0,0.4,0,0.6,0c0.2,0,0.3,0.1,0.4,0.1c0.1,0,0.2,0.1,0.2,0.1c0,0.1,0.1,0.1,0.1,0.2v7.5H51v-7.5
				c0-0.1,0-0.1,0.1-0.2c0-0.1,0.1-0.1,0.2-0.1c0.1,0,0.2-0.1,0.4-0.1c0.2,0,0.4,0,0.6,0c0.2,0,0.4,0,0.6,0c0.2,0,0.3,0.1,0.4,0.1
				c0.1,0,0.2,0.1,0.2,0.1c0,0.1,0.1,0.1,0.1,0.2V127.9z"/>
			<path class="st1" d="M74.1,118.7c0,1.5-0.2,2.9-0.5,4.1c-0.4,1.2-0.9,2.2-1.6,3.1c-0.7,0.9-1.6,1.5-2.7,2
				c-1.1,0.5-2.3,0.7-3.7,0.7c-1.4,0-2.6-0.2-3.6-0.6c-1-0.4-1.9-1-2.5-1.8c-0.7-0.8-1.2-1.8-1.5-3c-0.3-1.2-0.5-2.5-0.5-4.1
				c0-1.5,0.2-2.8,0.5-4c0.4-1.2,0.9-2.2,1.6-3.1c0.7-0.8,1.6-1.5,2.7-2c1.1-0.5,2.3-0.7,3.7-0.7c1.4,0,2.6,0.2,3.6,0.6
				c1,0.4,1.9,1,2.6,1.8c0.7,0.8,1.2,1.8,1.5,2.9C73.9,115.8,74.1,117.2,74.1,118.7z M71.5,118.9c0-1.1-0.1-2-0.3-3
				c-0.2-0.9-0.5-1.7-0.9-2.4c-0.4-0.7-1-1.2-1.8-1.6c-0.7-0.4-1.6-0.6-2.7-0.6c-1.1,0-2,0.2-2.7,0.6c-0.7,0.4-1.3,0.9-1.8,1.6
				c-0.5,0.7-0.8,1.5-1,2.4c-0.2,0.9-0.3,1.8-0.3,2.8c0,1.1,0.1,2.1,0.3,3c0.2,0.9,0.5,1.7,0.9,2.4c0.4,0.7,1,1.2,1.7,1.6
				c0.7,0.4,1.6,0.6,2.7,0.6c1.1,0,2-0.2,2.7-0.6c0.7-0.4,1.3-1,1.8-1.6c0.5-0.7,0.8-1.5,1-2.4C71.4,120.8,71.5,119.9,71.5,118.9z"
				/>
			<path class="st1" d="M88.4,127.2c0,0.2,0,0.3,0,0.5c0,0.1-0.1,0.2-0.1,0.3c0,0.1-0.1,0.1-0.2,0.2c-0.1,0-0.1,0.1-0.2,0.1h-9
				c-0.2,0-0.4-0.1-0.6-0.2c-0.2-0.1-0.3-0.4-0.3-0.8v-16.7c0-0.4,0.1-0.6,0.3-0.8c0.2-0.1,0.4-0.2,0.6-0.2h8.9c0.1,0,0.1,0,0.2,0.1
				c0.1,0,0.1,0.1,0.2,0.2c0,0.1,0.1,0.2,0.1,0.3c0,0.1,0,0.3,0,0.5c0,0.2,0,0.3,0,0.5c0,0.1-0.1,0.2-0.1,0.3c0,0.1-0.1,0.1-0.2,0.2
				c-0.1,0-0.1,0.1-0.2,0.1h-7.3v5.9h6.3c0.1,0,0.1,0,0.2,0.1c0.1,0,0.1,0.1,0.2,0.2c0,0.1,0.1,0.2,0.1,0.3c0,0.1,0,0.3,0,0.5
				c0,0.2,0,0.3,0,0.4c0,0.1-0.1,0.2-0.1,0.3c0,0.1-0.1,0.1-0.2,0.2c-0.1,0-0.1,0.1-0.2,0.1h-6.3v6.7h7.4c0.1,0,0.1,0,0.2,0.1
				c0.1,0,0.1,0.1,0.2,0.2c0,0.1,0.1,0.2,0.1,0.3C88.4,126.9,88.4,127.1,88.4,127.2z"/>
			<path class="st1" d="M106.6,127.2c0,0.2,0,0.4-0.1,0.5c-0.1,0.1-0.2,0.2-0.3,0.3c-0.1,0.1-0.2,0.1-0.4,0.2
				c-0.1,0-0.3,0.1-0.4,0.1h-0.8c-0.3,0-0.5,0-0.7-0.1c-0.2-0.1-0.4-0.1-0.6-0.3c-0.2-0.1-0.3-0.3-0.5-0.6c-0.2-0.2-0.4-0.5-0.6-0.9
				l-5.7-10.6c-0.3-0.5-0.6-1.1-0.9-1.7c-0.3-0.6-0.6-1.2-0.8-1.8h0c0,0.7,0,1.4,0,2.1c0,0.7,0,1.4,0,2.2v11.3c0,0.1,0,0.1-0.1,0.2
				c0,0.1-0.1,0.1-0.2,0.1c-0.1,0-0.2,0.1-0.4,0.1c-0.2,0-0.4,0-0.6,0c-0.2,0-0.4,0-0.6,0c-0.2,0-0.3-0.1-0.4-0.1
				c-0.1,0-0.2-0.1-0.2-0.1c0-0.1-0.1-0.1-0.1-0.2v-17.3c0-0.4,0.1-0.7,0.3-0.8c0.2-0.2,0.5-0.2,0.7-0.2h1.2c0.3,0,0.5,0,0.7,0.1
				c0.2,0,0.4,0.1,0.5,0.2c0.2,0.1,0.3,0.3,0.4,0.5c0.1,0.2,0.3,0.4,0.5,0.7l4.4,8.2c0.3,0.5,0.5,1,0.8,1.5c0.3,0.5,0.5,0.9,0.7,1.4
				c0.2,0.5,0.5,0.9,0.7,1.4c0.2,0.4,0.5,0.9,0.7,1.4h0c0-0.8,0-1.6,0-2.4c0-0.8,0-1.6,0-2.4V110c0-0.1,0-0.1,0.1-0.2
				c0-0.1,0.1-0.1,0.2-0.2c0.1,0,0.2-0.1,0.4-0.1c0.2,0,0.4,0,0.6,0c0.2,0,0.4,0,0.6,0c0.2,0,0.3,0.1,0.4,0.1c0.1,0,0.2,0.1,0.2,0.2
				c0,0.1,0.1,0.1,0.1,0.2V127.2z"/>
			<path class="st1" d="M114.1,127.9c0,0.1,0,0.1-0.1,0.2c0,0.1-0.1,0.1-0.2,0.1c-0.1,0-0.2,0.1-0.4,0.1c-0.2,0-0.4,0-0.6,0
				c-0.2,0-0.4,0-0.6,0c-0.2,0-0.3-0.1-0.4-0.1c-0.1,0-0.2-0.1-0.2-0.1c0-0.1-0.1-0.1-0.1-0.2v-18c0-0.1,0-0.1,0.1-0.2
				c0-0.1,0.1-0.1,0.2-0.1c0.1,0,0.2-0.1,0.4-0.1c0.2,0,0.3,0,0.6,0c0.2,0,0.4,0,0.6,0c0.2,0,0.3,0.1,0.4,0.1c0.1,0,0.2,0.1,0.2,0.1
				c0,0.1,0.1,0.1,0.1,0.2V127.9z"/>
			<path class="st1" d="M131,127.4c0.1,0.2,0.2,0.4,0.2,0.5c0,0.1,0,0.2-0.1,0.3c-0.1,0.1-0.2,0.1-0.4,0.1c-0.2,0-0.5,0-0.8,0
				c-0.3,0-0.5,0-0.7,0c-0.2,0-0.3,0-0.4-0.1c-0.1,0-0.2-0.1-0.2-0.1c-0.1-0.1-0.1-0.1-0.1-0.2l-4.2-7.4l-4.2,7.4
				c0,0.1-0.1,0.2-0.2,0.2c-0.1,0.1-0.1,0.1-0.2,0.1c-0.1,0-0.2,0.1-0.4,0.1c-0.2,0-0.4,0-0.7,0c-0.3,0-0.6,0-0.8,0
				c-0.2,0-0.3-0.1-0.4-0.1c-0.1-0.1-0.1-0.2-0.1-0.3c0-0.1,0.1-0.3,0.2-0.5l5.1-8.6l-4.9-8.3c-0.1-0.2-0.2-0.4-0.2-0.5
				c0-0.1,0-0.2,0.1-0.3c0.1-0.1,0.2-0.1,0.4-0.1c0.2,0,0.5,0,0.8,0c0.3,0,0.5,0,0.7,0c0.2,0,0.3,0,0.4,0.1c0.1,0,0.2,0.1,0.2,0.1
				c0,0.1,0.1,0.1,0.2,0.2l4,7l4-7c0-0.1,0.1-0.1,0.1-0.2c0-0.1,0.1-0.1,0.2-0.1c0.1,0,0.2-0.1,0.4-0.1c0.2,0,0.4,0,0.7,0
				c0.3,0,0.5,0,0.7,0c0.2,0,0.3,0.1,0.4,0.1c0.1,0.1,0.1,0.2,0.1,0.3c0,0.1-0.1,0.3-0.2,0.5l-4.9,8.3L131,127.4z"/>
		</g>
		<g>
			<path class="st1" d="M95.9,69.2c4.8-3.9,7.1-5.7,13.3-17c6.2-11.3,4-24.9,4-24.9c9.5,22.3-6,43.5-10.5,49.5
				c-1.6-1.7-4.2-1.8-6-0.2c-1.7,1.6-1.9,4.4-0.2,6c4.3,4,13.4-4,19.9-12.8C123,61,124,47.4,124,47.4c5.4,19.9-10.2,35.9-14.7,40.4
				c-1.1-1.6-3.4-2-5-0.9c-1.6,1.1-2.1,3.4-0.9,5c3.3,4.3,11.9-1.6,18.5-8.2c6.5-6.6,9-17.9,9-17.9c2.2,17.4-12.8,29-17.1,32.3
				c-0.8-1.5-2.6-2.1-4.1-1.3c-1.5,0.8-2.1,2.6-1.3,4.1c2.4,4.5,8.9,0.1,14.1-3.8c5.2-3.9,8-11.5,8-11.5c-0.2,12.3-9,18.9-12.3,20.7
				H90.7c0,0,7.2-3.4,6.9-10.5c-0.4-7.1-9-10.9-9-15.7C88.6,74.4,91.1,73.2,95.9,69.2z"/>
			<path class="st1" d="M60,69.2c-4.8-3.9-7.1-5.7-13.3-17c-6.2-11.3-4-24.9-4-24.9c-9.5,22.3,6,43.5,10.5,49.5
				c1.6-1.7,4.2-1.8,6-0.2c1.7,1.6,1.9,4.4,0.2,6c-4.3,4-13.4-4-19.9-12.8c-6.6-8.7-7.5-22.3-7.5-22.3
				c-5.4,19.9,10.2,35.9,14.7,40.4c1.1-1.6,3.4-2,5-0.9c1.6,1.1,2.1,3.4,0.9,5c-3.3,4.3-11.9-1.6-18.5-8.2c-6.5-6.6-9-17.9-9-17.9
				c-2.2,17.4,12.8,29,17.1,32.3c0.8-1.5,2.6-2.1,4.1-1.3c1.5,0.8,2.1,2.6,1.3,4.1c-2.4,4.5-8.9,0.1-14.1-3.8
				c-5.2-3.9-8-11.5-8-11.5c0.2,12.3,9,18.9,12.3,20.7h27.5c0,0-7.2-3.4-6.9-10.5c0.4-7.1,9-10.9,9-15.7
				C67.4,74.4,64.8,73.2,60,69.2z"/>
			<path id="path3015-0" class="st1" d="M77.5,75.2c-0.4,0-0.7,0.1-1,0.4c-0.3,0.2-0.4,0.6-0.5,0.9c0,0.2,0,0.4,0.1,0.6
				c0.1,0.2,0.2,0.4,0.4,0.5c0.2,0.1,0.4,0.2,0.6,0.2c0.2,0,0.4-0.1,0.6-0.2c-0.2,0.1-0.4,0.1-0.6,0.1c-0.2,0-0.4-0.1-0.5-0.2
				c-0.1-0.1-0.3-0.3-0.3-0.4c-0.1-0.2-0.1-0.4-0.1-0.5c0-0.3,0.2-0.5,0.4-0.7c0.2-0.1,0.5-0.2,0.8-0.2c0.3,0,0.5,0.1,0.7,0.3
				c0.2,0.2,0.4,0.4,0.5,0.6c0.1,0.3,0.2,0.6,0.2,1c0,0.3-0.1,0.7-0.2,1c-0.2,0.6-0.7,1.2-1.2,1.7c-0.8,0.7-1.7,1.3-2.6,1.9
				c-1.4,0.9-2.8,1.6-4.2,2.9c-1.4,1.3-2.9,3.2-3.7,5c-1.9,4.3-0.2,8.5,3.5,11.4c-1.2-4.6,0.6-8,3.8-8.1c2.9-0.2,3.9,4.1-1.1,8.9
				c-2.5,2.5-4.6,3.8-4.6,3.8l19.4,0.2c0,0-4.4-1.7-5-6.6c-0.7-4.8,2-6.1,1.8-9.3c-0.1-2.2-1-4.7-3.4-6c0.2,0,0.3,0,0.5,0
				c0.5,0.1,1.1,0.4,1.8,0.5c0.3,0.1,0.7,0.1,1.1,0.1c0.4,0,0.8-0.2,1.1-0.4c0.2-0.2,0.4-0.4,0.5-0.7c0.1-0.3,0.1-0.6,0-0.8
				c-0.1-0.3-0.2-0.5-0.5-0.6c-0.2-0.1-0.5-0.2-0.8-0.1c-0.2,0-0.3,0.1-0.4,0.2c-0.1,0.1-0.2,0.2-0.3,0.4c0,0.1-0.1,0.3,0,0.4
				c0,0.1,0.1,0.3,0.2,0.4c-0.1-0.1-0.1-0.3-0.1-0.4c0-0.1,0-0.3,0.1-0.4c0.1-0.1,0.1-0.2,0.3-0.3c0.1-0.1,0.2-0.1,0.3-0.1
				c0.2,0,0.4,0.1,0.5,0.2c0.1,0.1,0.2,0.3,0.2,0.4c0,0.2,0,0.3-0.1,0.5c-0.1,0.1-0.2,0.2-0.3,0.3c-0.2,0.1-0.4,0.1-0.7,0.1
				c-0.2,0-0.5-0.1-0.7-0.2c-0.5-0.2-1-0.6-1.7-0.9c-0.4-0.1-0.7-0.2-1.1-0.2c0.4-0.2,0.7-0.3,1.1-0.4c0.5-0.1,1.2-0.2,1.9-0.4
				c0.3-0.1,0.7-0.2,1-0.4c0.3-0.2,0.6-0.5,0.8-0.8c0.2-0.3,0.3-0.5,0.3-0.8c0-0.3,0-0.6-0.2-0.9c-0.1-0.3-0.4-0.5-0.6-0.6
				c-0.3-0.1-0.6-0.1-0.8,0c-0.3,0.1-0.5,0.3-0.6,0.6c-0.1,0.3-0.1,0.6,0,0.8c-0.1-0.3-0.1-0.5,0.1-0.8c0.1-0.2,0.3-0.4,0.6-0.4
				c0.2,0,0.4,0,0.6,0.1c0.2,0.1,0.3,0.3,0.4,0.5c0.1,0.2,0.1,0.4,0,0.6c0,0.2-0.1,0.4-0.3,0.5c-0.2,0.2-0.4,0.3-0.6,0.4
				c-0.2,0.1-0.5,0.2-0.8,0.2c-0.5,0.1-1.2,0-1.8,0.1c-0.8,0.1-1.6,0.3-2.4,0.6c0.5-0.3,1.1-0.6,1.7-1c0.3-0.2,0.6-0.5,0.8-0.7
				c0.3-0.3,0.5-0.6,0.6-1c0.1-0.3,0.1-0.7,0-1c-0.1-0.3-0.3-0.7-0.5-0.9c-0.3-0.2-0.6-0.3-1-0.3c-0.2,0-0.3,0.1-0.5,0.2
				c-0.1,0.1-0.2,0.2-0.3,0.4c-0.1,0.1-0.1,0.3-0.1,0.4c0,0.2,0.1,0.3,0.1,0.4c0.1,0.1,0.2,0.2,0.3,0.3c0.1,0.1,0.3,0.1,0.4,0.1
				c-0.1,0-0.3-0.1-0.4-0.2c-0.1-0.1-0.2-0.2-0.2-0.3c-0.1-0.1-0.1-0.2-0.1-0.4c0-0.1,0.1-0.2,0.1-0.3c0.1-0.1,0.2-0.2,0.3-0.2
				c0.1-0.1,0.2-0.1,0.3-0.1c0.2,0,0.5,0.1,0.6,0.3c0.2,0.2,0.2,0.4,0.3,0.6c0,0.2,0,0.5-0.1,0.7c-0.1,0.3-0.3,0.5-0.5,0.7
				c-0.2,0.2-0.5,0.3-0.7,0.5c-0.5,0.3-1.2,0.4-1.8,0.7c-0.2,0.1-0.4,0.2-0.6,0.3c0.5-0.6,0.9-1.3,1.1-2.1c0.1-0.4,0.2-0.9,0.1-1.3
				c0-0.4-0.2-0.9-0.4-1.2c-0.2-0.3-0.4-0.6-0.7-0.7C78.2,75.3,77.8,75.2,77.5,75.2z M75.2,86.5c0,0-1.7,1-2.2,1.7
				c-0.5,0.8-0.9,2.1-0.9,2.1l-2.7,1.9c0,0-0.1-1.5,1.7-3.6C72.9,86.6,75.2,86.5,75.2,86.5z"/>
		</g>
	</g>
</g>
</svg>
