<?xml version="1.0" encoding="utf-8"?>
<!-- Generator: Adobe Illustrator 19.2.1, SVG Export Plug-In . SVG Version: 6.00 Build 0)  -->
<svg version="1.1" id="Laag_1" xmlns="http://www.w3.org/2000/svg" xmlns:xlink="http://www.w3.org/1999/xlink" x="0px" y="0px"
	 viewBox="0 0 141.7 141.7" style="enable-background:new 0 0 141.7 141.7;" xml:space="preserve">
<style type="text/css">
	.st0{fill:url(#SVGID_1_);}
</style>
<rect x="-5.7" y="-5.7" width="153.1" height="153.1"/>
<g>
	<g>
		<linearGradient id="SVGID_1_" gradientUnits="userSpaceOnUse" x1="94.2451" y1="114.8369" x2="33.3354" y2="48.3917">
			<stop  offset="0" style="stop-color:#FFF33B"/>
			<stop  offset="5.948725e-002" style="stop-color:#FFE029"/>
			<stop  offset="0.1303" style="stop-color:#FFD218"/>
			<stop  offset="0.2032" style="stop-color:#FEC90F"/>
			<stop  offset="0.2809" style="stop-color:#FDC70C"/>
			<stop  offset="0.6685" style="stop-color:#F3903F"/>
			<stop  offset="0.8876" style="stop-color:#ED683C"/>
			<stop  offset="1" style="stop-color:#E93E3A"/>
		</linearGradient>
		<path class="st0" d="M24.8,98.8h9.9c0.8,0,1.5-0.3,2.1-0.8c0.5-0.5,0.8-1.2,0.8-2V76.4c0-0.8-0.3-1.5-0.8-2
			c-0.5-0.5-1.2-0.8-2.1-0.8h-9.1L26,61.8h11.2v-3.2H22.5l-0.5,18.1H34v18.9h-8.4v-9.9H22v10.2c0,0.8,0.3,1.5,0.8,2
			C23.3,98.5,24,98.8,24.8,98.8z M48.1,99.8V74.3h4.3v-2.2H41.3v2.2h4.3v25.5H48.1z M61.6,72.1h-2.4l-4.9,27.6v0.1h2.4l1-6.1h5.5
			l1,6.1h2.4L61.6,72.1z M57.9,91.5l2.4-15l2.4,15H57.9z M77.6,86.6c0.3,0,0.6,0,0.8,0c1.8,0,2.7-0.7,2.7-2V74.1
			c0-0.6-0.2-1-0.5-1.4c-0.4-0.4-0.8-0.5-1.4-0.5h-9.3v27.6h2.5V74.3h6.3v10.2h-4.4L73.9,85L79,99.8h2.6c-1.6-4.4-3.2-8.8-4.8-13.2
			C77,86.5,77.2,86.5,77.6,86.6z M27.9,112.3l-1.2-0.8l1.1-0.7c0.4-0.3,0.6-0.6,0.6-1.1V105c0-0.3-0.1-0.6-0.3-0.8
			c-0.2-0.2-0.5-0.3-0.8-0.3h-5.3V120h5.4c0.3,0,0.6-0.1,0.8-0.3c0.2-0.2,0.3-0.5,0.3-0.8v-5.5C28.4,112.9,28.2,112.5,27.9,112.3z
			 M23.3,105.1h3.6v4.9l-1.4,1h-2.1V105.1z M26.9,118.8h-3.6v-6.6h2.2l1.5,1V118.8z M36.2,118.8h-3.9v-14.9h-1.4v15.1
			c0,0.3,0.1,0.6,0.3,0.8c0.2,0.2,0.5,0.3,0.8,0.3h4.4c0.3,0,0.6-0.1,0.8-0.3c0.2-0.2,0.3-0.5,0.3-0.8v-15.1h-1.4V118.8z M40.3,120
			h1.4v-16.2h-1.4V120z M46,103.8h-1.4V120h5.2v-1.3H46V103.8z M55.4,103.8h-3.7V120h3.7c0.9,0,1.6-0.3,2.1-0.8
			c0.6-0.5,0.8-1.3,0.8-2.1v-10.3c0-0.9-0.3-1.6-0.8-2.1C57,104.1,56.3,103.8,55.4,103.8z M56.9,117c0,0.6-0.2,1-0.5,1.3
			c-0.3,0.3-0.8,0.5-1.4,0.5h-1.9v-13.7h2c0.5,0,1,0.2,1.3,0.5c0.3,0.3,0.5,0.8,0.5,1.3V117z M61,120h1.4v-16.2H61V120z M70.5,115.5
			l-4.3-11.7h-1.1V120h1.4v-11.9l4.3,11.9h1v-16.2h-1.4V115.5z M79.9,103.8h-4.3c-0.3,0-0.6,0.1-0.8,0.3c-0.2,0.2-0.3,0.5-0.3,0.8
			v13.9c0,0.3,0.1,0.6,0.3,0.8c0.2,0.2,0.5,0.3,0.8,0.3h4.3c0.3,0,0.6-0.1,0.8-0.3c0.2-0.2,0.3-0.5,0.3-0.8v-7h-3.2v1.2h1.7v5.6
			h-3.7v-13.7h3.7v3.6H81V105c0-0.3-0.1-0.6-0.3-0.8C80.5,103.9,80.2,103.8,79.9,103.8z M119.9,58.6h-4.9l-34,0L70.2,26.3l-1.5-4.6
			l-1.5,4.6L56.6,58.6l-17.7,0.1v3.2l18.9-0.1l1.2,0l0.4-1.1L68.7,32l9.5,28.7l0.4,1.1h1.2l30.3,0.1L85.6,79.7l-1,0.7l0.4,1.1
			l9.3,28.7c-4.7-1.7-10-2.7-10-2.7l12.1,8.3l4,2.8l-1.5-4.7L88.4,81.5l27.5-20L119.9,58.6z"/>
	</g>
</g>
</svg>
